<?xml version="1.0" encoding="utf-8"?>
<!-- Generator: Adobe Illustrator 18.1.1, SVG Export Plug-In . SVG Version: 6.00 Build 0)  -->
<svg version="1.1" id="Layer_1" xmlns="http://www.w3.org/2000/svg" xmlns:xlink="http://www.w3.org/1999/xlink" x="0px" y="0px"
	 width="561.5px" height="553.8px" viewBox="0 0 561.5 553.8" enable-background="new 0 0 561.5 553.8" xml:space="preserve">
<g>
	<g>
		<path fill="#FFFFFF" d="M324,25.7c0,0-0.6,1-1.4,1c-3,0-40.3,0-49.8,3.6c-4,1.6-5.2,3.6-6.3,10.5c-2,12.7-2.8,22.4-2.8,33.3
			c-0.4,13.5,0,27.3,4.6,40.4c1.6,4.6,6.9,5.5,11.1,5.9c6.9,0.8,8.7,1,16.5-0.4c1.6-0.2,1.6-1,1.6-2.4c0.2-1.8,2-53.3,2-53.3
			c0-0.8,0.2-1.4,1.2-1.4c0.6,0,22.2,0,22.8,0c0.8,0,0.8,0.6,1,1.2l-0.6,75.5c0,1-1.2,1.4-1.4,1.4h0.2c-19.6,1.2-51,1-67.4-0.4
			c-6.7-0.6-9.1-1.2-11.3-7.1c-7.7-20.6-9.7-42.6-9.7-74.7c0-9.9,2-30.5,4.8-42.6c2-9.1,5.4-9.1,15.1-9.7c22.6-1.6,49-1.4,73.4,0.4
			c1,0,1.2,0.2,1,1.2C328.7,8.8,325.4,20.9,324,25.7z"/>
		<path fill="#FFFFFF" d="M325.9,536.2c-1.2,4.9-1.8,8.5-7.1,9.7c-12.5,2.6-59.1,3.6-74.8,0c-5.2-1.2-6.1-2.6-7.5-8.3
			c-7.8-30.5-9.7-88.2-0.4-119.7c1.2-3.8,2.8-4.2,5.8-4.8c10.1-2,67.4-2.6,78.9-0.2c5,1,5.8,1.6,7.2,6.4
			C337.8,452.4,332.9,503.3,325.9,536.2z M296.8,436.2c-5.2-2-21.5-2.2-27.8-0.4c-4.1,1.4-5.5,2.4-6.7,5.6
			c-6.4,15.7-8.7,64,1.8,79.7c0.8,1.2,2,2.4,3.6,3c6.3,2,18.8,2.4,26.4,0.4c2.6-0.6,3.4-1.2,4.7-3.6c8.2-16.2,10.3-62.6,2.6-80.2
			C300.5,438,299.6,437.2,296.8,436.2z"/>
	</g>
	<g>
		<path fill="#FFFFFF" d="M541.4,340.5c-0.4,0.2-13.5,4.8-18.3,6.5c-0.8,0.2-1.8,0.2-2.4-0.4c-0.4-0.4-31.1-36.9-31.1-36.9
			c-2,0.4-3.2,0.2-13.9,2.2c-0.6,10.5-0.6,18.6-1,28.9c-0.2,0.2-0.6,1.4-1.2,1.4h-20.5c-1,0-1.6-1-1.6-1.6c0,0-2.4-130.9-2.4-131.7
			c0-1,1.4-1.2,2.4-1.2c29.6-1.6,63.7-2.2,81.1,0.8c3,0.4,4.4,2.2,5.6,7.1c4.2,19.2,6,52.9,1.8,74.7c-0.6,3.4-0.4,5.9-4,7.5
			c-5.8,2.6-12.3,4.2-19.4,5.7c10.1,14.1,16.3,21.8,25.6,35.1C542.4,339.5,542.2,340.1,541.4,340.5z M509.7,231.3
			c-0.6-1-1.6-2-2.8-2.2c-9.7-1-18.4,0.4-27.6,2c-1,0.2-1.4,0.8-1.4,1.2c-1,20.6-2,33.9-1.8,54.5c0,1.2,1.2,1.6,2,1.4
			c10.9-0.4,23.6-4.1,31.2-7.5c5.4-2.2,6.1-3.6,6.5-7.1C517.2,262.4,515.8,240.5,509.7,231.3z"/>
		<path fill="#FFFFFF" d="M105.7,294.6c-1.4,4.8-1.8,5.1-6.7,7.5c-2.8,1.4-8.3,2.4-10.9,3.6l26.6,33.3c0.2,0,1,1,0,1.6
			c-0.8,0.4-20,5.9-21.2,6.1c-1,0.2-1.4-0.4-1.4-0.4l-30.5-36.5c0,0-8,1-12.9,1c-1.2,10.7-1.2,18.6-2,30.1c0,0-0.4,0.8-1,0.8H24.1
			c-0.8,0-0.8-0.8-0.8-0.8c-1-28.3-1-105-2-133.1c0-0.4,0.4-1,1.5-1c1,0,24.8,0.2,25.8,0c1,0,1.2,0,1.2,1c0,0.8-1.2,78.9-1.2,78.9
			c12.7-0.6,21-1,30.8-6.1c2.8-1.6,4.6-2.6,5.6-6.7c2.6-11.9,5.8-27.5,7.1-66c0.2-1,1.2-1,1.2-1h25.4c1,0,1.4,0,1.4,1.2
			C117.2,237.5,111,277.8,105.7,294.6z"/>
	</g>
	<path fill="#FFFFFF" d="M68.1,501c-2.4-0.3-4.3-1.1-5.7-2.4c-0.9-0.9-2.1-2.5-3.5-4.8c-1.4-2.3-2.4-3.8-3.2-4.6
		c-1.1-1.1-2-1.7-2.7-1.8l0.2-2.2c11.4-9.9,24.6-22.2,39.5-36.9c6.2-6.1,267.8-263.4,279.9-275.7C384.6,160.2,468,78,474.1,72
		c9.5-9.3,18.2-15.8,25.9-19.4c0.4,2,1.9,4.3,4.5,6.8c3.1,3.4,5.1,5.7,5.9,7c-20.1,20.3-35.2,35.4-45.2,45.3L113.8,456.9
		C103.7,466.8,88.5,481.5,68.1,501z"/>
	<path fill="#FFFFFF" d="M53.5,66.9c0.3-2.4,1.1-4.2,2.5-5.6c1-0.9,2.6-2.1,4.9-3.4c2.3-1.3,3.8-2.4,4.7-3.2
		c1.1-1.1,1.7-1.9,1.8-2.6l2.3,0.2c10.1,11.2,22.6,24.2,37.5,38.9c6.2,6.1,268.1,263.1,280.6,275c12.6,11.8,96.2,93.7,102.3,99.7
		c9.5,9.4,16.1,17.8,19.8,25.4c-2,0.4-4.3,1.9-6.9,4.4c-3.4,3.1-5.8,5-7.2,5.8c-20.7-19.8-36-34.6-46.1-44.4L98.4,111.8
		C88.3,101.9,73.4,87,53.5,66.9z"/>
</g>
</svg>
